<svg xmlns="http://www.w3.org/2000/svg" width="980" height="426" viewBox="0 0 980 426" font-family="DejaVu Sans, Helvetica, Arial, sans-serif">
<rect width="980" height="426" fill="#fcfcfb"/>
<text x="34" y="52" font-size="27" font-weight="bold" fill="#0b0b0b">Attribution of responsibility &#8212; aes_like</text>
<text x="34" y="78" font-size="15" fill="#52514e">outcome under consideration: signoff failure (total DRC), 407 markers in 133 GCells</text>
<text x="34" y="112" font-size="12.5" fill="#8b8a84" letter-spacing="0.06em">MACRO</text>
<text x="150" y="112" font-size="12.5" fill="#8b8a84" letter-spacing="0.06em">HP RESPONSIBILITY</text>
<text x="400" y="112" font-size="12.5" fill="#8b8a84" letter-spacing="0.06em">PN</text>
<text x="470" y="112" font-size="12.5" fill="#8b8a84" letter-spacing="0.06em">PS</text>
<text x="545" y="112" font-size="12.5" fill="#8b8a84" letter-spacing="0.06em">SHAPLEY</text>
<text x="660" y="112" font-size="12.5" fill="#8b8a84" letter-spacing="0.06em">CONGESTION PRICE</text>
<text x="800" y="112" font-size="12.5" fill="#8b8a84" letter-spacing="0.06em">VERDICT</text>
<line x1="34" y1="120" x2="946" y2="120" stroke="#e6e5e0" stroke-width="1.5"/>
<text x="34" y="155" font-size="17" font-weight="bold" fill="#0b0b0b">M1</text>
<rect x="150" y="138" width="220.0" height="17" rx="4" fill="#2a78d6"/>
<rect x="150" y="138" width="220" height="17" rx="4" fill="none" stroke="#e6e5e0"/>
<text x="378" y="152" font-size="12" fill="#52514e" text-anchor="end">1.00</text>
<text x="400" y="152" font-size="13" fill="#0b0b0b">0.58</text>
<text x="470" y="152" font-size="13" fill="#0b0b0b">0.38</text>
<text x="545" y="152" font-size="13" fill="#0b0b0b">+55.2</text>
<rect x="660" y="140" width="63.8" height="13" rx="3" fill="#eb6834" opacity="0.85"/>
<text x="800" y="152" font-size="13.5" fill="#eb6834">contributing cause</text>
<line x1="34" y1="172" x2="946" y2="172" stroke="#e6e5e0"/>
<text x="34" y="201" font-size="17" font-weight="bold" fill="#0b0b0b">M2</text>
<rect x="150" y="184" width="220.0" height="17" rx="4" fill="#2a78d6"/>
<rect x="150" y="184" width="220" height="17" rx="4" fill="none" stroke="#e6e5e0"/>
<text x="378" y="198" font-size="12" fill="#52514e" text-anchor="end">1.00</text>
<text x="400" y="198" font-size="13" fill="#0b0b0b">0.67</text>
<text x="470" y="198" font-size="13" fill="#0b0b0b">0.27</text>
<text x="545" y="198" font-size="13" fill="#0b0b0b">+33.9</text>
<rect x="660" y="186" width="40.2" height="13" rx="3" fill="#eb6834" opacity="0.85"/>
<text x="800" y="198" font-size="13.5" fill="#008300">necessary cause</text>
<line x1="34" y1="218" x2="946" y2="218" stroke="#e6e5e0"/>
<text x="34" y="247" font-size="17" font-weight="bold" fill="#0b0b0b">M4</text>
<rect x="150" y="230" width="90.8" height="17" rx="4" fill="#2a78d6"/>
<rect x="150" y="230" width="220" height="17" rx="4" fill="none" stroke="#e6e5e0"/>
<text x="378" y="244" font-size="12" fill="#52514e" text-anchor="end">0.50</text>
<text x="400" y="244" font-size="13" fill="#0b0b0b">0.75</text>
<text x="470" y="244" font-size="13" fill="#0b0b0b">0.23</text>
<text x="545" y="244" font-size="13" fill="#0b0b0b">+53.5</text>
<rect x="660" y="232" width="73.7" height="13" rx="3" fill="#eb6834" opacity="0.85"/>
<text x="800" y="244" font-size="13.5" fill="#008300">necessary cause</text>
<line x1="34" y1="264" x2="946" y2="264" stroke="#e6e5e0"/>
<text x="34" y="293" font-size="17" font-weight="bold" fill="#0b0b0b">M3</text>
<rect x="150" y="276" width="85.2" height="17" rx="4" fill="#2a78d6"/>
<rect x="150" y="276" width="220" height="17" rx="4" fill="none" stroke="#e6e5e0"/>
<text x="378" y="290" font-size="12" fill="#52514e" text-anchor="end">0.50</text>
<text x="400" y="290" font-size="13" fill="#0b0b0b">0.25</text>
<text x="470" y="290" font-size="13" fill="#0b0b0b">0.05</text>
<text x="545" y="290" font-size="13" fill="#0b0b0b">+4.5</text>
<rect x="660" y="278" width="49.6" height="13" rx="3" fill="#eb6834" opacity="0.85"/>
<text x="800" y="290" font-size="13.5" fill="#eb6834">contributing cause</text>
<line x1="34" y1="310" x2="946" y2="310" stroke="#e6e5e0"/>
<text x="34" y="339" font-size="17" font-weight="bold" fill="#0b0b0b">M5</text>
<rect x="150" y="322" width="77.0" height="17" rx="4" fill="#2a78d6"/>
<rect x="150" y="322" width="220" height="17" rx="4" fill="none" stroke="#e6e5e0"/>
<text x="378" y="336" font-size="12" fill="#52514e" text-anchor="end">0.50</text>
<text x="400" y="336" font-size="13" fill="#0b0b0b">0.25</text>
<text x="470" y="336" font-size="13" fill="#0b0b0b">0.07</text>
<text x="545" y="336" font-size="13" fill="#0b0b0b">+23.3</text>
<rect x="660" y="324" width="110.0" height="13" rx="3" fill="#eb6834" opacity="0.85"/>
<text x="800" y="336" font-size="13.5" fill="#eb6834">contributing cause</text>
<line x1="34" y1="356" x2="946" y2="356" stroke="#e6e5e0"/>
<text x="34" y="385" font-size="17" font-weight="bold" fill="#0b0b0b">M0</text>
<rect x="150" y="368" width="68.8" height="17" rx="4" fill="#2a78d6"/>
<rect x="150" y="368" width="220" height="17" rx="4" fill="none" stroke="#e6e5e0"/>
<text x="378" y="382" font-size="12" fill="#52514e" text-anchor="end">0.50</text>
<text x="400" y="382" font-size="13" fill="#0b0b0b">0.25</text>
<text x="470" y="382" font-size="13" fill="#0b0b0b">0.00</text>
<text x="545" y="382" font-size="13" fill="#0b0b0b">-8.8</text>
<rect x="660" y="370" width="0.0" height="13" rx="3" fill="#eb6834" opacity="0.85"/>
<text x="800" y="382" font-size="13.5" fill="#eb6834">contributing cause</text>
<line x1="34" y1="402" x2="946" y2="402" stroke="#e6e5e0"/>
<text x="34" y="410" font-size="11.5" fill="#8b8a84">PN = probability of necessity, PS = probability of sufficiency, both over the designer's action set; responsibility = 1/(1+|W|) for the smallest witness coalition W; price in units of routing cost imposed on other nets.</text>
</svg>